<svg width="88" height="87" viewBox="0 0 88 87" fill="none" xmlns="http://www.w3.org/2000/svg">
<g opacity="0.3">
<mask id="mask0_1_11" style="mask-type:alpha" maskUnits="userSpaceOnUse" x="0" y="0" width="9" height="10">
<path d="M4.88354 9.78058C7.06976 9.78058 8.84204 7.81121 8.84204 5.38193C8.84204 2.95265 7.06976 0.983337 4.88354 0.983337C2.69732 0.983337 0.925049 2.95265 0.925049 5.38193C0.925049 7.81121 2.69732 9.78058 4.88354 9.78058Z" fill="url(#paint0_linear_1_11)"/>
</mask>
<g mask="url(#mask0_1_11)">
<path d="M4.88354 9.78058C7.06976 9.78058 8.84204 7.81121 8.84204 5.38193C8.84204 2.95265 7.06976 0.983337 4.88354 0.983337C2.69732 0.983337 0.925049 2.95265 0.925049 5.38193C0.925049 7.81121 2.69732 9.78058 4.88354 9.78058Z" fill="url(#paint1_linear_1_11)"/>
</g>
<mask id="mask1_1_11" style="mask-type:alpha" maskUnits="userSpaceOnUse" x="23" y="0" width="9" height="10">
<path d="M27.8094 9.78058C29.9956 9.78058 31.7679 7.81121 31.7679 5.38193C31.7679 2.95265 29.9956 0.983337 27.8094 0.983337C25.6232 0.983337 23.8509 2.95265 23.8509 5.38193C23.8509 7.81121 25.6232 9.78058 27.8094 9.78058Z" fill="url(#paint2_linear_1_11)"/>
</mask>
<g mask="url(#mask1_1_11)">
<path d="M27.8098 9.78058C29.996 9.78058 31.7683 7.81121 31.7683 5.38193C31.7683 2.95265 29.996 0.983337 27.8098 0.983337C25.6235 0.983337 23.8513 2.95265 23.8513 5.38193C23.8513 7.81121 25.6235 9.78058 27.8098 9.78058Z" fill="url(#paint3_linear_1_11)"/>
</g>
<mask id="mask2_1_11" style="mask-type:alpha" maskUnits="userSpaceOnUse" x="46" y="0" width="9" height="10">
<path d="M50.7353 9.78058C52.9215 9.78058 54.6938 7.81121 54.6938 5.38193C54.6938 2.95265 52.9215 0.983337 50.7353 0.983337C48.5491 0.983337 46.7768 2.95265 46.7768 5.38193C46.7768 7.81121 48.5491 9.78058 50.7353 9.78058Z" fill="url(#paint4_linear_1_11)"/>
</mask>
<g mask="url(#mask2_1_11)">
<path d="M50.736 9.78058C52.9222 9.78058 54.6945 7.81121 54.6945 5.38193C54.6945 2.95265 52.9222 0.983337 50.736 0.983337C48.5497 0.983337 46.7775 2.95265 46.7775 5.38193C46.7775 7.81121 48.5497 9.78058 50.736 9.78058Z" fill="url(#paint5_linear_1_11)"/>
</g>
<mask id="mask3_1_11" style="mask-type:alpha" maskUnits="userSpaceOnUse" x="69" y="0" width="9" height="10">
<path d="M73.6611 9.78058C75.8474 9.78058 77.6196 7.81121 77.6196 5.38193C77.6196 2.95265 75.8474 0.983337 73.6611 0.983337C71.4749 0.983337 69.7026 2.95265 69.7026 5.38193C69.7026 7.81121 71.4749 9.78058 73.6611 9.78058Z" fill="url(#paint6_linear_1_11)"/>
</mask>
<g mask="url(#mask3_1_11)">
<path d="M73.6618 9.78058C75.848 9.78058 77.6202 7.81121 77.6202 5.38193C77.6202 2.95265 75.848 0.983337 73.6618 0.983337C71.4755 0.983337 69.7032 2.95265 69.7032 5.38193C69.7032 7.81121 71.4755 9.78058 73.6618 9.78058Z" fill="url(#paint7_linear_1_11)"/>
</g>
<mask id="mask4_1_11" style="mask-type:alpha" maskUnits="userSpaceOnUse" x="0" y="23" width="9" height="9">
<path d="M4.88348 31.8651C7.0697 31.8651 8.84198 29.8958 8.84198 27.4666C8.84198 25.0373 7.0697 23.068 4.88348 23.068C2.69726 23.068 0.924988 25.0373 0.924988 27.4666C0.924988 29.8958 2.69726 31.8651 4.88348 31.8651Z" fill="url(#paint8_linear_1_11)"/>
</mask>
<g mask="url(#mask4_1_11)">
<path d="M4.88348 31.8652C7.0697 31.8652 8.84198 29.8959 8.84198 27.4666C8.84198 25.0374 7.0697 23.0681 4.88348 23.0681C2.69726 23.0681 0.924988 25.0374 0.924988 27.4666C0.924988 29.8959 2.69726 31.8652 4.88348 31.8652Z" fill="url(#paint9_linear_1_11)"/>
</g>
<mask id="mask5_1_11" style="mask-type:alpha" maskUnits="userSpaceOnUse" x="23" y="23" width="9" height="9">
<path d="M27.8094 31.8653C29.9956 31.8653 31.7679 29.896 31.7679 27.4667C31.7679 25.0374 29.9956 23.0681 27.8094 23.0681C25.6232 23.0681 23.8509 25.0374 23.8509 27.4667C23.8509 29.896 25.6232 31.8653 27.8094 31.8653Z" fill="url(#paint10_linear_1_11)"/>
</mask>
<g mask="url(#mask5_1_11)">
<path d="M27.8098 31.8652C29.996 31.8652 31.7683 29.8959 31.7683 27.4666C31.7683 25.0374 29.996 23.0681 27.8098 23.0681C25.6235 23.0681 23.8513 25.0374 23.8513 27.4666C23.8513 29.8959 25.6235 31.8652 27.8098 31.8652Z" fill="url(#paint11_linear_1_11)"/>
</g>
<mask id="mask6_1_11" style="mask-type:alpha" maskUnits="userSpaceOnUse" x="46" y="23" width="9" height="9">
<path d="M50.7353 31.8653C52.9215 31.8653 54.6938 29.896 54.6938 27.4667C54.6938 25.0374 52.9215 23.0681 50.7353 23.0681C48.5491 23.0681 46.7768 25.0374 46.7768 27.4667C46.7768 29.896 48.5491 31.8653 50.7353 31.8653Z" fill="url(#paint12_linear_1_11)"/>
</mask>
<g mask="url(#mask6_1_11)">
<path d="M50.736 31.8652C52.9222 31.8652 54.6945 29.8959 54.6945 27.4666C54.6945 25.0374 52.9222 23.0681 50.736 23.0681C48.5497 23.0681 46.7775 25.0374 46.7775 27.4666C46.7775 29.8959 48.5497 31.8652 50.736 31.8652Z" fill="url(#paint13_linear_1_11)"/>
</g>
<mask id="mask7_1_11" style="mask-type:alpha" maskUnits="userSpaceOnUse" x="69" y="23" width="9" height="9">
<path d="M73.6611 31.8653C75.8474 31.8653 77.6196 29.896 77.6196 27.4667C77.6196 25.0374 75.8474 23.0681 73.6611 23.0681C71.4749 23.0681 69.7026 25.0374 69.7026 27.4667C69.7026 29.896 71.4749 31.8653 73.6611 31.8653Z" fill="url(#paint14_linear_1_11)"/>
</mask>
<g mask="url(#mask7_1_11)">
<path d="M73.6618 31.8652C75.848 31.8652 77.6202 29.8959 77.6202 27.4666C77.6202 25.0374 75.848 23.0681 73.6618 23.0681C71.4755 23.0681 69.7032 25.0374 69.7032 27.4666C69.7032 29.8959 71.4755 31.8652 73.6618 31.8652Z" fill="url(#paint15_linear_1_11)"/>
</g>
<mask id="mask8_1_11" style="mask-type:alpha" maskUnits="userSpaceOnUse" x="0" y="45" width="9" height="9">
<path d="M4.88348 53.9042C7.0697 53.9042 8.84198 51.9349 8.84198 49.5056C8.84198 47.0763 7.0697 45.1069 4.88348 45.1069C2.69726 45.1069 0.924988 47.0763 0.924988 49.5056C0.924988 51.9349 2.69726 53.9042 4.88348 53.9042Z" fill="url(#paint16_linear_1_11)"/>
</mask>
<g mask="url(#mask8_1_11)">
<path d="M4.88348 53.9043C7.0697 53.9043 8.84198 51.9349 8.84198 49.5056C8.84198 47.0763 7.0697 45.107 4.88348 45.107C2.69726 45.107 0.924988 47.0763 0.924988 49.5056C0.924988 51.9349 2.69726 53.9043 4.88348 53.9043Z" fill="url(#paint17_linear_1_11)"/>
</g>
<mask id="mask9_1_11" style="mask-type:alpha" maskUnits="userSpaceOnUse" x="23" y="45" width="9" height="9">
<path d="M27.8094 53.9045C29.9956 53.9045 31.7679 51.9352 31.7679 49.5059C31.7679 47.0766 29.9956 45.1072 27.8094 45.1072C25.6232 45.1072 23.8509 47.0766 23.8509 49.5059C23.8509 51.9352 25.6232 53.9045 27.8094 53.9045Z" fill="url(#paint18_linear_1_11)"/>
</mask>
<g mask="url(#mask9_1_11)">
<path d="M27.8098 53.9043C29.996 53.9043 31.7683 51.935 31.7683 49.5057C31.7683 47.0764 29.996 45.1071 27.8098 45.1071C25.6235 45.1071 23.8513 47.0764 23.8513 49.5057C23.8513 51.935 25.6235 53.9043 27.8098 53.9043Z" fill="url(#paint19_linear_1_11)"/>
</g>
<mask id="mask10_1_11" style="mask-type:alpha" maskUnits="userSpaceOnUse" x="46" y="45" width="9" height="9">
<path d="M50.7353 53.9045C52.9215 53.9045 54.6938 51.9352 54.6938 49.5059C54.6938 47.0766 52.9215 45.1072 50.7353 45.1072C48.5491 45.1072 46.7768 47.0766 46.7768 49.5059C46.7768 51.9352 48.5491 53.9045 50.7353 53.9045Z" fill="url(#paint20_linear_1_11)"/>
</mask>
<g mask="url(#mask10_1_11)">
<path d="M50.736 53.9043C52.9222 53.9043 54.6945 51.935 54.6945 49.5057C54.6945 47.0764 52.9222 45.1071 50.736 45.1071C48.5497 45.1071 46.7775 47.0764 46.7775 49.5057C46.7775 51.935 48.5497 53.9043 50.736 53.9043Z" fill="url(#paint21_linear_1_11)"/>
</g>
<mask id="mask11_1_11" style="mask-type:alpha" maskUnits="userSpaceOnUse" x="69" y="45" width="9" height="9">
<path d="M73.6611 53.9045C75.8474 53.9045 77.6196 51.9352 77.6196 49.5059C77.6196 47.0766 75.8474 45.1072 73.6611 45.1072C71.4749 45.1072 69.7026 47.0766 69.7026 49.5059C69.7026 51.9352 71.4749 53.9045 73.6611 53.9045Z" fill="url(#paint22_linear_1_11)"/>
</mask>
<g mask="url(#mask11_1_11)">
<path d="M73.6618 53.9043C75.848 53.9043 77.6202 51.935 77.6202 49.5057C77.6202 47.0764 75.848 45.1071 73.6618 45.1071C71.4755 45.1071 69.7032 47.0764 69.7032 49.5057C69.7032 51.935 71.4755 53.9043 73.6618 53.9043Z" fill="url(#paint23_linear_1_11)"/>
</g>
<mask id="mask12_1_11" style="mask-type:alpha" maskUnits="userSpaceOnUse" x="0" y="67" width="9" height="9">
<path d="M4.88348 75.9893C7.0697 75.9893 8.84198 74.0199 8.84198 71.5906C8.84198 69.1613 7.0697 67.192 4.88348 67.192C2.69726 67.192 0.924988 69.1613 0.924988 71.5906C0.924988 74.0199 2.69726 75.9893 4.88348 75.9893Z" fill="url(#paint24_linear_1_11)"/>
</mask>
<g mask="url(#mask12_1_11)">
<path d="M4.88348 75.989C7.0697 75.989 8.84198 74.0196 8.84198 71.5904C8.84198 69.1611 7.0697 67.1918 4.88348 67.1918C2.69726 67.1918 0.924988 69.1611 0.924988 71.5904C0.924988 74.0196 2.69726 75.989 4.88348 75.989Z" fill="url(#paint25_linear_1_11)"/>
</g>
<mask id="mask13_1_11" style="mask-type:alpha" maskUnits="userSpaceOnUse" x="23" y="67" width="9" height="9">
<path d="M27.8094 75.9893C29.9956 75.9893 31.7679 74.0199 31.7679 71.5906C31.7679 69.1613 29.9956 67.192 27.8094 67.192C25.6232 67.192 23.8509 69.1613 23.8509 71.5906C23.8509 74.0199 25.6232 75.9893 27.8094 75.9893Z" fill="url(#paint26_linear_1_11)"/>
</mask>
<g mask="url(#mask13_1_11)">
<path d="M27.8098 75.989C29.996 75.989 31.7683 74.0196 31.7683 71.5904C31.7683 69.1611 29.996 67.1918 27.8098 67.1918C25.6235 67.1918 23.8513 69.1611 23.8513 71.5904C23.8513 74.0196 25.6235 75.989 27.8098 75.989Z" fill="url(#paint27_linear_1_11)"/>
</g>
<mask id="mask14_1_11" style="mask-type:alpha" maskUnits="userSpaceOnUse" x="46" y="67" width="9" height="9">
<path d="M50.7353 75.9893C52.9215 75.9893 54.6938 74.0199 54.6938 71.5906C54.6938 69.1613 52.9215 67.192 50.7353 67.192C48.5491 67.192 46.7768 69.1613 46.7768 71.5906C46.7768 74.0199 48.5491 75.9893 50.7353 75.9893Z" fill="url(#paint28_linear_1_11)"/>
</mask>
<g mask="url(#mask14_1_11)">
<path d="M50.736 75.989C52.9222 75.989 54.6945 74.0196 54.6945 71.5904C54.6945 69.1611 52.9222 67.1918 50.736 67.1918C48.5497 67.1918 46.7775 69.1611 46.7775 71.5904C46.7775 74.0196 48.5497 75.989 50.736 75.989Z" fill="url(#paint29_linear_1_11)"/>
</g>
<mask id="mask15_1_11" style="mask-type:alpha" maskUnits="userSpaceOnUse" x="69" y="67" width="9" height="9">
<path d="M73.6611 75.9893C75.8474 75.9893 77.6196 74.0199 77.6196 71.5906C77.6196 69.1613 75.8474 67.192 73.6611 67.192C71.4749 67.192 69.7026 69.1613 69.7026 71.5906C69.7026 74.0199 71.4749 75.9893 73.6611 75.9893Z" fill="url(#paint30_linear_1_11)"/>
</mask>
<g mask="url(#mask15_1_11)">
<path d="M73.6618 75.989C75.848 75.989 77.6202 74.0196 77.6202 71.5904C77.6202 69.1611 75.848 67.1918 73.6618 67.1918C71.4755 67.1918 69.7032 69.1611 69.7032 71.5904C69.7032 74.0196 71.4755 75.989 73.6618 75.989Z" fill="url(#paint31_linear_1_11)"/>
</g>
</g>
<defs>
<linearGradient id="paint0_linear_1_11" x1="39.477" y1="102.958" x2="-25.5738" y2="-45.6483" gradientUnits="userSpaceOnUse">
<stop stop-color="#FFA434"/>
<stop offset="1" stop-color="#FFA434"/>
</linearGradient>
<linearGradient id="paint1_linear_1_11" x1="39.477" y1="102.958" x2="-25.5738" y2="-45.6483" gradientUnits="userSpaceOnUse">
<stop stop-color="#FFA434"/>
<stop offset="1" stop-color="#FFA434"/>
</linearGradient>
<linearGradient id="paint2_linear_1_11" x1="62.4029" y1="102.958" x2="-2.64781" y2="-45.6484" gradientUnits="userSpaceOnUse">
<stop stop-color="#FFA434"/>
<stop offset="1" stop-color="#FFA434"/>
</linearGradient>
<linearGradient id="paint3_linear_1_11" x1="62.4032" y1="102.958" x2="-2.64744" y2="-45.6484" gradientUnits="userSpaceOnUse">
<stop stop-color="#FFA434"/>
<stop offset="1" stop-color="#FFA434"/>
</linearGradient>
<linearGradient id="paint4_linear_1_11" x1="85.3288" y1="102.958" x2="20.2781" y2="-45.6484" gradientUnits="userSpaceOnUse">
<stop stop-color="#FFA434"/>
<stop offset="1" stop-color="#FFA434"/>
</linearGradient>
<linearGradient id="paint5_linear_1_11" x1="85.3294" y1="102.958" x2="20.2788" y2="-45.6484" gradientUnits="userSpaceOnUse">
<stop stop-color="#FFA434"/>
<stop offset="1" stop-color="#FFA434"/>
</linearGradient>
<linearGradient id="paint6_linear_1_11" x1="108.255" y1="102.958" x2="43.2039" y2="-45.6484" gradientUnits="userSpaceOnUse">
<stop stop-color="#FFA434"/>
<stop offset="1" stop-color="#FFA434"/>
</linearGradient>
<linearGradient id="paint7_linear_1_11" x1="108.255" y1="102.958" x2="43.2045" y2="-45.6484" gradientUnits="userSpaceOnUse">
<stop stop-color="#FFA434"/>
<stop offset="1" stop-color="#FFA434"/>
</linearGradient>
<linearGradient id="paint8_linear_1_11" x1="39.4769" y1="125.042" x2="-25.5727" y2="-23.5637" gradientUnits="userSpaceOnUse">
<stop stop-color="#FFA434"/>
<stop offset="1" stop-color="#FFA434"/>
</linearGradient>
<linearGradient id="paint9_linear_1_11" x1="39.4769" y1="125.042" x2="-25.5727" y2="-23.5636" gradientUnits="userSpaceOnUse">
<stop stop-color="#FFA434"/>
<stop offset="1" stop-color="#FFA434"/>
</linearGradient>
<linearGradient id="paint10_linear_1_11" x1="62.4029" y1="125.042" x2="-2.64673" y2="-23.5636" gradientUnits="userSpaceOnUse">
<stop stop-color="#FFA434"/>
<stop offset="1" stop-color="#FFA434"/>
</linearGradient>
<linearGradient id="paint11_linear_1_11" x1="62.4032" y1="125.042" x2="-2.64637" y2="-23.5636" gradientUnits="userSpaceOnUse">
<stop stop-color="#FFA434"/>
<stop offset="1" stop-color="#FFA434"/>
</linearGradient>
<linearGradient id="paint12_linear_1_11" x1="85.3288" y1="125.042" x2="20.2792" y2="-23.5636" gradientUnits="userSpaceOnUse">
<stop stop-color="#FFA434"/>
<stop offset="1" stop-color="#FFA434"/>
</linearGradient>
<linearGradient id="paint13_linear_1_11" x1="85.3294" y1="125.042" x2="20.2798" y2="-23.5636" gradientUnits="userSpaceOnUse">
<stop stop-color="#FFA434"/>
<stop offset="1" stop-color="#FFA434"/>
</linearGradient>
<linearGradient id="paint14_linear_1_11" x1="108.255" y1="125.042" x2="43.205" y2="-23.5636" gradientUnits="userSpaceOnUse">
<stop stop-color="#FFA434"/>
<stop offset="1" stop-color="#FFA434"/>
</linearGradient>
<linearGradient id="paint15_linear_1_11" x1="108.255" y1="125.042" x2="43.2056" y2="-23.5636" gradientUnits="userSpaceOnUse">
<stop stop-color="#FFA434"/>
<stop offset="1" stop-color="#FFA434"/>
</linearGradient>
<linearGradient id="paint16_linear_1_11" x1="39.4769" y1="147.082" x2="-25.5738" y2="-1.5247" gradientUnits="userSpaceOnUse">
<stop stop-color="#FFA434"/>
<stop offset="1" stop-color="#FFA434"/>
</linearGradient>
<linearGradient id="paint17_linear_1_11" x1="39.4769" y1="147.082" x2="-25.5738" y2="-1.52461" gradientUnits="userSpaceOnUse">
<stop stop-color="#FFA434"/>
<stop offset="1" stop-color="#FFA434"/>
</linearGradient>
<linearGradient id="paint18_linear_1_11" x1="62.4029" y1="147.082" x2="-2.64781" y2="-1.52445" gradientUnits="userSpaceOnUse">
<stop stop-color="#FFA434"/>
<stop offset="1" stop-color="#FFA434"/>
</linearGradient>
<linearGradient id="paint19_linear_1_11" x1="62.4032" y1="147.082" x2="-2.64744" y2="-1.52463" gradientUnits="userSpaceOnUse">
<stop stop-color="#FFA434"/>
<stop offset="1" stop-color="#FFA434"/>
</linearGradient>
<linearGradient id="paint20_linear_1_11" x1="85.3288" y1="147.082" x2="20.2781" y2="-1.52445" gradientUnits="userSpaceOnUse">
<stop stop-color="#FFA434"/>
<stop offset="1" stop-color="#FFA434"/>
</linearGradient>
<linearGradient id="paint21_linear_1_11" x1="85.3294" y1="147.082" x2="20.2788" y2="-1.52463" gradientUnits="userSpaceOnUse">
<stop stop-color="#FFA434"/>
<stop offset="1" stop-color="#FFA434"/>
</linearGradient>
<linearGradient id="paint22_linear_1_11" x1="108.255" y1="147.082" x2="43.2039" y2="-1.52445" gradientUnits="userSpaceOnUse">
<stop stop-color="#FFA434"/>
<stop offset="1" stop-color="#FFA434"/>
</linearGradient>
<linearGradient id="paint23_linear_1_11" x1="108.255" y1="147.082" x2="43.2045" y2="-1.52463" gradientUnits="userSpaceOnUse">
<stop stop-color="#FFA434"/>
<stop offset="1" stop-color="#FFA434"/>
</linearGradient>
<linearGradient id="paint24_linear_1_11" x1="39.4769" y1="169.167" x2="-25.5738" y2="20.5604" gradientUnits="userSpaceOnUse">
<stop stop-color="#FFA434"/>
<stop offset="1" stop-color="#FFA434"/>
</linearGradient>
<linearGradient id="paint25_linear_1_11" x1="39.4769" y1="169.166" x2="-25.5738" y2="20.5601" gradientUnits="userSpaceOnUse">
<stop stop-color="#FFA434"/>
<stop offset="1" stop-color="#FFA434"/>
</linearGradient>
<linearGradient id="paint26_linear_1_11" x1="62.4029" y1="169.167" x2="-2.64781" y2="20.5603" gradientUnits="userSpaceOnUse">
<stop stop-color="#FFA434"/>
<stop offset="1" stop-color="#FFA434"/>
</linearGradient>
<linearGradient id="paint27_linear_1_11" x1="62.4032" y1="169.166" x2="-2.64744" y2="20.5601" gradientUnits="userSpaceOnUse">
<stop stop-color="#FFA434"/>
<stop offset="1" stop-color="#FFA434"/>
</linearGradient>
<linearGradient id="paint28_linear_1_11" x1="85.3288" y1="169.167" x2="20.2781" y2="20.5603" gradientUnits="userSpaceOnUse">
<stop stop-color="#FFA434"/>
<stop offset="1" stop-color="#FFA434"/>
</linearGradient>
<linearGradient id="paint29_linear_1_11" x1="85.3294" y1="169.166" x2="20.2788" y2="20.5601" gradientUnits="userSpaceOnUse">
<stop stop-color="#FFA434"/>
<stop offset="1" stop-color="#FFA434"/>
</linearGradient>
<linearGradient id="paint30_linear_1_11" x1="108.255" y1="169.167" x2="43.2039" y2="20.5603" gradientUnits="userSpaceOnUse">
<stop stop-color="#FFA434"/>
<stop offset="1" stop-color="#FFA434"/>
</linearGradient>
<linearGradient id="paint31_linear_1_11" x1="108.255" y1="169.166" x2="43.2045" y2="20.5601" gradientUnits="userSpaceOnUse">
<stop stop-color="#FFA434"/>
<stop offset="1" stop-color="#FFA434"/>
</linearGradient>
</defs>
</svg>
